<svg viewBox="0 0 499.49 499.49" xmlns="http://www.w3.org/2000/svg" class="breed-specification__breed-svg"><path d="M59.63 274.83s7.26 5.82 14.21 4.16c16.39-3.91 31.63-14.51 46.53-35.71 10.31-14.67 30.76-54.75 71.66-62.73 40.9-7.97 58.58 2.43 92.89 5.89 34.31 3.47 33.7 2.97 42.85 1.5 6.64-1.07 14.9-1.02 22.53-.34 7.63.69 13.65.22 19.2-5.67 5.54-5.89 9.36-5.55 11.78-12.13 2.43-6.59 11.44-20.45 24.26-27.73s23.61-15.64 28.42-19.06c5.13-3.66 11.44-1.04 4.85 10.4 0 0 15.25-9.36 15.25-5.89s-9.01 15.94-9.01 15.94-2.98 2.07 2.43 4.16c3.76 1.45 10.83 8.32 11.61 13.78.78 5.45 1.56 16.37 3.64 19.49s4.16 7.54 3.12 9.1c-1.04 1.57-3.9 8.06-12.48 10.92s-11.18 1.55-13 1.55-4.68-.51-5.72 3.64c-1.04 4.16-3.9 18.19-3.38 26.26.52 8.06-5.72 22.61-14.04 28.07s-20.8 18.47-18.72 30.17c2.08 11.69 5.46 28.85 6.5 32.75s2.08 6.75 4.16 7.02c2.08.26 8.06 1.3 9.62 5.2s-.78 9.88-7.28 10.66-13.6-.87-16.38-1.57c-4.09-1-7.8-10.91-9.88-17.15s-11.44-26.26-13.26-28.34-4.68 3.64-5.98 5.98-11.7 30.17-12.22 34.84-1.82 9.36 1.56 10.14c3.38.79 8.58 5.46 7.8 9.36-.78 3.91-3.12 7.28-10.66 8.32s-17.68-1.04-18.72-6.75c-1.04-5.72.78-18.45.78-24.44 0-5.98-.26-33.27-1.04-36.65s-1.04-5.72-5.98-4.95c-4.94.79-33.01 4.68-42.63 5.99-9.62 1.29-28.85-2.08-31.97-2.08s-10.92 9.35-15.34 14.03-20.02 20.8-17.68 24.96c2.33 4.16 9.61 21.57 12.73 21.57s6.5-2.59 12.74.78c6.24 3.38 3.9 12.48 1.3 14.04-2.6 1.55-7.54 4.16-16.9 3.64-9.36-.53-11.7-2.87-13.52-5.46-1.82-2.6-7.54-7.8-7.54-7.8s-3.9 2.86-11.95 2.08c-8.06-.78-10.14-2.86-14.82-8.32-4.67-5.45-14.56-20.27-18.72-29.38-4.16-9.1-3.63-12.73-2.34-16.64 1.3-3.9 8.58-25.21 10.4-32.49 1.83-7.28 1.83-13-.78-20.02-2.59-7.02-4.94-13.78-4.94-13.78s-1.82-7.79-3.38-4.94c-1.55 2.86-19.59 23.98-26.77 29.89-4.42 3.64-29.33 26.17-54.18 31.15-19.03 3.8-34.13-4.35-44.87-19.98-2.86-4.16-5.46-9.61.78-14.81s11.7-1.04 14.82 1.29c3.15 2.36 5.41 4.62 7.66 6.09z" fill="#e0e0e0"/></svg>