<svg viewBox="0 0 499.49 499.49" xmlns="http://www.w3.org/2000/svg" class="breed-specification__breed-svg"><path d="M216.54 371.94s-4.82-5.66-2.72-15.29c2.09-9.63 6.27-19.27 7.75-23.67 1.46-4.4 13.82-4.19 27.01-5.86s16.34-3.77 29.74-2.09c13.41 1.67 21.36.42 21.99 3.98s3.15 26.6 3.35 38.11c.21 11.52-.42 23.46 3.57 26.6 3.98 3.14 18.84 1.26 21.57-1.26 2.73-2.51 3.35-5.45 0-9.42-3.35-3.98-7.95-1.47-7.12-7.33.84-5.86 4.82-25.55 5.03-31.21 0 0 9.22 12.99 11.73 24.92 2.51 11.94 4.6 25.34 13.19 27.02 8.59 1.67 21.36 1.26 21.16-5.03-.21-6.28-2.31-6.07-6.08-8.17-3.77-2.09-8.38-2.93-8.38-9s-5.24-30.37-2.73-41.89 22-35.19 24.92-47.75c2.93-12.57 4.19-39.79 5.66-48.17s3.53-10.47 7.3-15.08c1.39-1.71 2.33-5.23 3.4-10.63.7-3.55-.1-6.88-2.53-9.9-2.34-2.9-6.35-7.2-11.73-11.94 0 0 1.78-13.52 0-18.64-1.93-5.54-10.48 12.15-12.36 13.41 0 0-11.93-.42-17.59 1.04 0 0-9.24-9.98-15.08-15.29-7.61-6.92-11.31-.63-11.52 9.01-.21 9.63 5.99 16.65 5.99 21.05s-1.59 18.12-3.46 23.77c-1.89 5.66-2.52 11.73-8.8 10.68s-11.74-4.61-20.11-5.24c-8.38-.63-17.39-1.05-32.46-5.24-15.08-4.19-42.51-6.91-58.85-4.19-16.33 2.72-31.62 8.38-40.42-1.88-8.79-10.26-24.29-49.22-33.72-62.62s-14.45-28.48-5.24-38.54c9.22-10.05 19.69-8.8 17.59-17.59-2.09-8.8-24.72-4.83-33.48 5.7-6.08 7.32-17.62 18.38-5.27 53.15 12.36 34.77 36.86 67.65 39.17 80.84s-3.35 14.45.84 30.16c4.18 15.71 20.1 34.24 23.87 49.85 1.47 6.07.83 22.62-2.51 32.04-3.35 9.42 2.3 17.8 5.23 22.83 2.94 5.03 10.68 17.17 17.18 24.08 6.49 6.91 7.11 7.54 13.82 8.17 6.7.63 20.11.42 19.48-5.24 0 0 14.45 1.26 16.54-3.14 2.1-4.4 2.93-7.33-1.05-10.89s-6.49-1.88-8.58-1.88c-2.09.02-6.07.85-15.29-12.34z"/></svg>