<svg viewBox="0 0 499.49 499.49" xmlns="http://www.w3.org/2000/svg" class="breed-specification__breed-svg"><path d="M182.07 251.84s-2.1-7.52-2.1-14.74 1.63-12.91-1.38-12.29c-14.57 2.97-33.87-.03-46.16-10.87-5.12-4.51-18.65-18.65-17.45-36.4s20.84-26.18 24.37-23.77c5.11 3.48 1.51 7.82-.9 10.53s-12.94 9.93-7.82 20.46c5.11 10.53 15.65 21.06 38.21 22.27 22.56 1.2 24.37-3.91 45.73-3.31s48.44 3.01 64.38 6.92c15.95 3.91 25.58 3.31 32.19 5.72 6.62 2.41 16.24-6.62 18.95-12.34s11.44-15.04 15.95-17.45 16.47-16.93 21.06-12.34c1.51 1.51-.3 7.82-.3 7.82s7.82-6.92 8.12-3.01-5.42 10.83-4.22 12.94 8.73 6.02 9.63 12.34c.91 6.32 2.11 12.94 3.32 14.44 1.2 1.51 1.76 6.56-1.51 8.72-2.15 1.42-6.81 5.19-12.99 5.55-4.51.27-5.69 2.84-5.94 4.39-.27 1.55-3.54 15.26-4.13 19.87-.9 7.07-5.21 12.09-8.26 14.97-4.64 4.39-18.07 14.97-19.35 22.71-1.29 7.74-2.66 32.32-1.03 34.59 1.28 1.81 6.97 1.55 6.71 5.94s-5.16 5.16-5.16 5.16.25 5.16-5.17 5.42-14.97-.26-16-5.42-1.81-16-4.13-22.72c-2.32-6.71-7.74-27.36-12.13-29.42-4.39-2.07-20.13-3.1-28.91-2.07s-23.75.26-30.2-1.03-8.52 3.61-10.06 6.45c-1.55 2.84-11.36 14.71-9.3 18.59 2.07 3.87 6.45 13.16 9.03 14.2 2.58 1.03 9.04 1.03 9.3 5.68s-4.13 5.16-5.42 5.16-14.46 3.61-19.62-6.71-10.84-18.33-10.84-18.33-2.84 3.36-1.81 8.26 3.88 13.16 5.94 14.71c2.07 1.55 6.19 1.29 7.75 5.16 1.55 3.87-2.33 6.97-5.94 7.23s-13.68-.77-16.01-6.71c-2.32-5.94-10.84-24.78-10.84-30.97s2.84-13.16 5.68-18.84 5.16-20.91 2.84-26.85c-2.33-5.94-3.01-8.05-4.08-10.61z" fill="#e0e0e0"/></svg>